<svg xmlns="http://www.w3.org/2000/svg" style="display:none">
  <symbol id="doc.text.magnifyingglass" viewBox="0 0 24 24">
    <rect x="3" y="3" width="14" height="18" rx="2" ry="2" fill="none" stroke="currentColor" stroke-width="2"/>
    <line x1="6" y1="7" x2="14" y2="7" stroke="currentColor" stroke-width="2"/>
    <line x1="6" y1="11" x2="14" y2="11" stroke="currentColor" stroke-width="2"/>
    <line x1="6" y1="15" x2="12" y2="15" stroke="currentColor" stroke-width="2"/>
    <circle cx="18" cy="18" r="3" fill="none" stroke="currentColor" stroke-width="2"/>
    <line x1="20" y1="20" x2="23" y2="23" stroke="currentColor" stroke-width="2"/>
  </symbol>
  <symbol id="chevron.down" viewBox="0 0 24 24">
    <path d="M7 10l5 5 5-5" fill="none" stroke="currentColor" stroke-width="2"/>
  </symbol>
  <symbol id="text.badge.plus" viewBox="0 0 24 24">
    <rect x="4" y="4" width="16" height="12" rx="2" ry="2" fill="none" stroke="currentColor" stroke-width="2"/>
    <line x1="12" y1="8" x2="12" y2="16" stroke="currentColor" stroke-width="2"/>
    <line x1="8" y1="12" x2="16" y2="12" stroke="currentColor" stroke-width="2"/>
  </symbol>
  <symbol id="chart.bar" viewBox="0 0 24 24">
    <line x1="3" y1="19" x2="21" y2="19" stroke="currentColor" stroke-width="2"/>
    <rect x="5" y="11" width="3" height="8" fill="currentColor"/>
    <rect x="10" y="7" width="3" height="12" fill="currentColor"/>
    <rect x="15" y="3" width="3" height="16" fill="currentColor"/>
  </symbol>
  <symbol id="eye.slash" viewBox="0 0 24 24">
    <path d="M1 12s5-7 11-7 11 7 11 7-5 7-11 7S1 12 1 12z" fill="none" stroke="currentColor" stroke-width="2"/>
    <circle cx="12" cy="12" r="4" fill="none" stroke="currentColor" stroke-width="2"/>
    <path d="M2 2l20 20" stroke="currentColor" stroke-width="2"/>
  </symbol>
  <symbol id="checkmark.shield" viewBox="0 0 24 24">
    <path d="M12 2l8 4v5c0 5.25-3.5 10-8 11-4.5-1-8-5.75-8-11V6l8-4z" fill="none" stroke="currentColor" stroke-width="2"/>
    <path d="M8 12l2 2 4-4" fill="none" stroke="currentColor" stroke-width="2"/>
  </symbol>
  <symbol id="square.and.arrow.down" viewBox="0 0 24 24">
    <rect x="4" y="4" width="16" height="16" rx="2" ry="2" fill="none" stroke="currentColor" stroke-width="2"/>
    <path d="M12 8v8" stroke="currentColor" stroke-width="2"/>
    <path d="M8 12l4 4 4-4" fill="none" stroke="currentColor" stroke-width="2"/>
  </symbol>
  <symbol id="arrowshape.turn.up.right" viewBox="0 0 24 24">
    <path d="M4 16v-6a4 4 0 014-4h8" fill="none" stroke="currentColor" stroke-width="2"/>
    <path d="M12 4l6 6-6 6" fill="none" stroke="currentColor" stroke-width="2"/>
  </symbol>
  <symbol id="key" viewBox="0 0 24 24">
    <circle cx="9" cy="12" r="3" fill="none" stroke="currentColor" stroke-width="2"/>
    <path d="M12 12h10v4h-4v-2h-2v2h-4z" fill="none" stroke="currentColor" stroke-width="2"/>
  </symbol>
  <symbol id="cpu" viewBox="0 0 24 24">
    <rect x="5" y="5" width="14" height="14" rx="2" ry="2" fill="none" stroke="currentColor" stroke-width="2"/>
    <rect x="9" y="9" width="6" height="6" fill="none" stroke="currentColor" stroke-width="2"/>
    <path d="M9 1v4M15 1v4M9 19v4M15 19v4M1 9h4M1 15h4M19 9h4M19 15h4" stroke="currentColor" stroke-width="2"/>
  </symbol>
  <symbol id="globe" viewBox="0 0 24 24">
    <circle cx="12" cy="12" r="9" fill="none" stroke="currentColor" stroke-width="2"/>
    <ellipse cx="12" cy="12" rx="9" ry="4" fill="none" stroke="currentColor" stroke-width="2"/>
    <line x1="3" y1="12" x2="21" y2="12" stroke="currentColor" stroke-width="2"/>
  </symbol>
  <symbol id="clock.arrow.circlepath" viewBox="0 0 24 24">
    <circle cx="12" cy="12" r="9" fill="none" stroke="currentColor" stroke-width="2"/>
    <path d="M12 7v5l3 3" fill="none" stroke="currentColor" stroke-width="2"/>
    <path d="M3 3v5h5" fill="none" stroke="currentColor" stroke-width="2"/>
    <path d="M21 12a9 9 0 11-9-9" fill="none" stroke="currentColor" stroke-width="2"/>
  </symbol>
  <symbol id="curlybraces" viewBox="0 0 24 24">
    <path d="M10 4c-2 0-2 2-2 4v2c0 2-2 2-2 2s2 0 2 2v2c0 2 0 4 2 4M14 4c2 0 2 2 2 4v2c0 2 2 2 2 2s-2 0-2 2v2c0 2 0 4-2 4" fill="none" stroke="currentColor" stroke-width="2"/>
  </symbol>
</svg>
